<?xml version="1.0" encoding="UTF-8" standalone="no"?>
<!DOCTYPE svg PUBLIC "-//W3C//DTD SVG 1.1//EN"
 "http://www.w3.org/Graphics/SVG/1.1/DTD/svg11.dtd">
<!-- Generated by graphviz version 2.42.4 (0)
 -->
<!-- Title: HyperGraph Pages: 1 -->
<svg width="3168pt" height="260pt"
 viewBox="0.00 0.00 3168.08 260.00" xmlns="http://www.w3.org/2000/svg" xmlns:xlink="http://www.w3.org/1999/xlink">
<g id="graph0" class="graph" transform="scale(1 1) rotate(0) translate(4 256)">
<title>HyperGraph</title>
<polygon fill="#ecf0f1" stroke="transparent" points="-4,4 -4,-256 3164.08,-256 3164.08,4 -4,4"/>
<!-- node_0 -->
<g id="node1" class="node">
<title>node_0</title>
<ellipse fill="lightblue" stroke="blue" cx="1386.74" cy="-234" rx="114.28" ry="18"/>
<text text-anchor="middle" x="1386.74" y="-230.3" font-family="Arial" font-size="14.00">Project: Website Redesign</text>
</g>
<!-- node_1 -->
<g id="node2" class="node">
<title>node_1</title>
<ellipse fill="#3498db" stroke="orange" cx="715.74" cy="-162" rx="83.39" ry="18"/>
<text text-anchor="middle" x="715.74" y="-158.3" font-family="Arial" font-size="14.00" fill="white">☐ Planning Phase</text>
</g>
<!-- node_0&#45;&gt;node_1 -->
<g id="edge1" class="edge">
<title>node_0&#45;&gt;node_1</title>
<path fill="none" stroke="#34495e" d="M1294.14,-223.34C1162.88,-209.65 924.69,-184.8 798.83,-171.67"/>
<polygon fill="#34495e" stroke="#34495e" points="799.16,-168.18 788.85,-170.63 798.44,-175.15 799.16,-168.18"/>
</g>
<!-- node_6 -->
<g id="node7" class="node">
<title>node_6</title>
<ellipse fill="#3498db" stroke="green" cx="1386.74" cy="-162" rx="100.98" ry="18"/>
<text text-anchor="middle" x="1386.74" y="-158.3" font-family="Arial" font-size="14.00" fill="white">☐ Development Phase</text>
</g>
<!-- node_0&#45;&gt;node_6 -->
<g id="edge2" class="edge">
<title>node_0&#45;&gt;node_6</title>
<path fill="none" stroke="#34495e" d="M1386.74,-215.7C1386.74,-207.98 1386.74,-198.71 1386.74,-190.11"/>
<polygon fill="#34495e" stroke="#34495e" points="1390.24,-190.1 1386.74,-180.1 1383.24,-190.1 1390.24,-190.1"/>
</g>
<!-- node_15 -->
<g id="node16" class="node">
<title>node_15</title>
<ellipse fill="#3498db" stroke="red" cx="2151.74" cy="-162" rx="107.48" ry="18"/>
<text text-anchor="middle" x="2151.74" y="-158.3" font-family="Arial" font-size="14.00" fill="white">☐ Testing &amp; Deployment</text>
</g>
<!-- node_0&#45;&gt;node_15 -->
<g id="edge3" class="edge">
<title>node_0&#45;&gt;node_15</title>
<path fill="none" stroke="#34495e" d="M1482.85,-224.21C1627.99,-210.92 1901.87,-185.86 2050.17,-172.29"/>
<polygon fill="#34495e" stroke="#34495e" points="2050.55,-175.77 2060.19,-171.38 2049.91,-168.8 2050.55,-175.77"/>
</g>
<!-- node_2 -->
<g id="node3" class="node">
<title>node_2</title>
<ellipse fill="#3498db" stroke="#2c3e50" cx="152.74" cy="-90" rx="152.97" ry="18"/>
<text text-anchor="middle" x="152.74" y="-86.3" font-family="Arial" font-size="14.00" fill="white">☑ 2024&#45;12&#45;15: Gather requirements</text>
</g>
<!-- node_1&#45;&gt;node_2 -->
<g id="edge4" class="edge">
<title>node_1&#45;&gt;node_2</title>
<path fill="none" stroke="#34495e" d="M645.57,-152.28C549.79,-140.37 377.08,-118.89 263.66,-104.79"/>
<polygon fill="#34495e" stroke="#34495e" points="263.91,-101.3 253.56,-103.54 263.05,-108.24 263.91,-101.3"/>
</g>
<!-- node_3 -->
<g id="node4" class="node">
<title>node_3</title>
<ellipse fill="#3498db" stroke="#2c3e50" cx="466.74" cy="-90" rx="143.77" ry="18"/>
<text text-anchor="middle" x="466.74" y="-86.3" font-family="Arial" font-size="14.00" fill="white">☑ 2024&#45;12&#45;20: Create wireframes</text>
</g>
<!-- node_1&#45;&gt;node_3 -->
<g id="edge5" class="edge">
<title>node_1&#45;&gt;node_3</title>
<path fill="none" stroke="#34495e" d="M667.14,-147.34C628.66,-136.52 574.56,-121.31 532.26,-109.42"/>
<polygon fill="#34495e" stroke="#34495e" points="533.18,-106.04 522.6,-106.71 531.28,-112.78 533.18,-106.04"/>
</g>
<!-- node_4 -->
<g id="node5" class="node">
<title>node_4</title>
<g id="a_node5"><a xlink:title="Tags: design">
<ellipse fill="#3498db" stroke="#2c3e50" cx="715.74" cy="-90" rx="87.99" ry="18"/>
<text text-anchor="middle" x="715.74" y="-86.3" font-family="Arial" font-size="14.00" fill="white">⊙ Design mockups</text>
</a>
</g>
</g>
<!-- node_1&#45;&gt;node_4 -->
<g id="edge6" class="edge">
<title>node_1&#45;&gt;node_4</title>
<path fill="none" stroke="#34495e" d="M715.74,-143.7C715.74,-135.98 715.74,-126.71 715.74,-118.11"/>
<polygon fill="#34495e" stroke="#34495e" points="719.24,-118.1 715.74,-108.1 712.24,-118.1 719.24,-118.1"/>
</g>
<!-- node_5 -->
<g id="node6" class="node">
<title>node_5</title>
<ellipse fill="#3498db" stroke="#2c3e50" cx="941.74" cy="-90" rx="120.48" ry="18"/>
<text text-anchor="middle" x="941.74" y="-86.3" font-family="Arial" font-size="14.00" fill="white">☐ Get stakeholder approval</text>
</g>
<!-- node_1&#45;&gt;node_5 -->
<g id="edge7" class="edge">
<title>node_1&#45;&gt;node_5</title>
<path fill="none" stroke="#34495e" d="M761.2,-146.92C795.99,-136.14 844.26,-121.19 882.14,-109.46"/>
<polygon fill="#34495e" stroke="#34495e" points="883.51,-112.7 892.03,-106.4 881.44,-106.01 883.51,-112.7"/>
</g>
<!-- node_7 -->
<g id="node8" class="node">
<title>node_7</title>
<ellipse fill="#3498db" stroke="#2c3e50" cx="1190.74" cy="-90" rx="111.28" ry="18"/>
<text text-anchor="middle" x="1190.74" y="-86.3" font-family="Arial" font-size="14.00" fill="white">☐ Frontend Development</text>
</g>
<!-- node_6&#45;&gt;node_7 -->
<g id="edge8" class="edge">
<title>node_6&#45;&gt;node_7</title>
<path fill="none" stroke="#34495e" d="M1343.72,-145.64C1314.31,-135.13 1275.13,-121.14 1243.78,-109.95"/>
<polygon fill="#34495e" stroke="#34495e" points="1244.92,-106.64 1234.33,-106.57 1242.57,-113.23 1244.92,-106.64"/>
</g>
<!-- node_11 -->
<g id="node12" class="node">
<title>node_11</title>
<ellipse fill="#3498db" stroke="#2c3e50" cx="1501.74" cy="-90" rx="99.38" ry="18"/>
<text text-anchor="middle" x="1501.74" y="-86.3" font-family="Arial" font-size="14.00" fill="white">☐ Backend Integration</text>
</g>
<!-- node_6&#45;&gt;node_11 -->
<g id="edge9" class="edge">
<title>node_6&#45;&gt;node_11</title>
<path fill="none" stroke="#34495e" d="M1413.7,-144.59C1429.16,-135.18 1448.77,-123.24 1465.55,-113.02"/>
<polygon fill="#34495e" stroke="#34495e" points="1467.82,-115.74 1474.54,-107.55 1464.18,-109.76 1467.82,-115.74"/>
</g>
<!-- node_8 -->
<g id="node9" class="node">
<title>node_8</title>
<ellipse fill="#3498db" stroke="#2c3e50" cx="749.74" cy="-18" rx="133.78" ry="18"/>
<text text-anchor="middle" x="749.74" y="-14.3" font-family="Arial" font-size="14.00" fill="white">☐ Implement responsive layout</text>
</g>
<!-- node_7&#45;&gt;node_8 -->
<g id="edge10" class="edge">
<title>node_7&#45;&gt;node_8</title>
<path fill="none" stroke="#34495e" d="M1114.42,-76.89C1039.01,-64.92 923.52,-46.58 842.77,-33.77"/>
<polygon fill="#34495e" stroke="#34495e" points="843.03,-30.26 832.61,-32.15 841.93,-37.18 843.03,-30.26"/>
</g>
<!-- node_9 -->
<g id="node10" class="node">
<title>node_9</title>
<g id="a_node10"><a xlink:title="Tags: css">
<ellipse fill="#3498db" stroke="#2c3e50" cx="983.74" cy="-18" rx="82.59" ry="18"/>
<text text-anchor="middle" x="983.74" y="-14.3" font-family="Arial" font-size="14.00" fill="white">☐ Add animations</text>
</a>
</g>
</g>
<!-- node_7&#45;&gt;node_9 -->
<g id="edge11" class="edge">
<title>node_7&#45;&gt;node_9</title>
<path fill="none" stroke="#34495e" d="M1145.05,-73.55C1112.87,-62.67 1069.7,-48.07 1036.12,-36.71"/>
<polygon fill="#34495e" stroke="#34495e" points="1037.07,-33.34 1026.48,-33.45 1034.83,-39.97 1037.07,-33.34"/>
</g>
<!-- node_10 -->
<g id="node11" class="node">
<title>node_10</title>
<ellipse fill="#3498db" stroke="#2c3e50" cx="1190.74" cy="-18" rx="106.68" ry="18"/>
<text text-anchor="middle" x="1190.74" y="-14.3" font-family="Arial" font-size="14.00" fill="white">☐ Cross&#45;browser testing</text>
</g>
<!-- node_7&#45;&gt;node_10 -->
<g id="edge12" class="edge">
<title>node_7&#45;&gt;node_10</title>
<path fill="none" stroke="#34495e" d="M1190.74,-71.7C1190.74,-63.98 1190.74,-54.71 1190.74,-46.11"/>
<polygon fill="#34495e" stroke="#34495e" points="1194.24,-46.1 1190.74,-36.1 1187.24,-46.1 1194.24,-46.1"/>
</g>
<!-- node_12 -->
<g id="node13" class="node">
<title>node_12</title>
<ellipse fill="#3498db" stroke="#2c3e50" cx="1391.74" cy="-18" rx="76.09" ry="18"/>
<text text-anchor="middle" x="1391.74" y="-14.3" font-family="Arial" font-size="14.00" fill="white">☐ API endpoints</text>
</g>
<!-- node_11&#45;&gt;node_12 -->
<g id="edge13" class="edge">
<title>node_11&#45;&gt;node_12</title>
<path fill="none" stroke="#34495e" d="M1475.95,-72.59C1460.94,-63.04 1441.86,-50.9 1425.65,-40.58"/>
<polygon fill="#34495e" stroke="#34495e" points="1427.3,-37.48 1416.99,-35.07 1423.54,-43.39 1427.3,-37.48"/>
</g>
<!-- node_13 -->
<g id="node14" class="node">
<title>node_13</title>
<ellipse fill="#3498db" stroke="#2c3e50" cx="1583.74" cy="-18" rx="98.28" ry="18"/>
<text text-anchor="middle" x="1583.74" y="-14.3" font-family="Arial" font-size="14.00" fill="white">☐ Database migration</text>
</g>
<!-- node_11&#45;&gt;node_13 -->
<g id="edge14" class="edge">
<title>node_11&#45;&gt;node_13</title>
<path fill="none" stroke="#34495e" d="M1521.59,-72.05C1531.96,-63.2 1544.82,-52.22 1556.15,-42.55"/>
<polygon fill="#34495e" stroke="#34495e" points="1558.74,-44.94 1564.07,-35.79 1554.19,-39.62 1558.74,-44.94"/>
</g>
<!-- node_14 -->
<g id="node15" class="node">
<title>node_14</title>
<ellipse fill="#3498db" stroke="#2c3e50" cx="1807.74" cy="-18" rx="107.78" ry="18"/>
<text text-anchor="middle" x="1807.74" y="-14.3" font-family="Arial" font-size="14.00" fill="white">☐ Authentication system</text>
</g>
<!-- node_11&#45;&gt;node_14 -->
<g id="edge15" class="edge">
<title>node_11&#45;&gt;node_14</title>
<path fill="none" stroke="#34495e" d="M1560.74,-75.5C1610.99,-64.01 1683.33,-47.46 1736.74,-35.24"/>
<polygon fill="#34495e" stroke="#34495e" points="1737.86,-38.58 1746.82,-32.93 1736.29,-31.75 1737.86,-38.58"/>
</g>
<!-- node_16 -->
<g id="node17" class="node">
<title>node_16</title>
<ellipse fill="#3498db" stroke="#2c3e50" cx="2151.74" cy="-90" rx="64.99" ry="18"/>
<text text-anchor="middle" x="2151.74" y="-86.3" font-family="Arial" font-size="14.00" fill="white">☐ QA Testing</text>
</g>
<!-- node_15&#45;&gt;node_16 -->
<g id="edge16" class="edge">
<title>node_15&#45;&gt;node_16</title>
<path fill="none" stroke="#34495e" d="M2151.74,-143.7C2151.74,-135.98 2151.74,-126.71 2151.74,-118.11"/>
<polygon fill="#34495e" stroke="#34495e" points="2155.24,-118.1 2151.74,-108.1 2148.24,-118.1 2155.24,-118.1"/>
</g>
<!-- node_20 -->
<g id="node21" class="node">
<title>node_20</title>
<ellipse fill="#3498db" stroke="#2c3e50" cx="2711.74" cy="-90" rx="68.79" ry="18"/>
<text text-anchor="middle" x="2711.74" y="-86.3" font-family="Arial" font-size="14.00" fill="white">☐ Deployment</text>
</g>
<!-- node_15&#45;&gt;node_20 -->
<g id="edge17" class="edge">
<title>node_15&#45;&gt;node_20</title>
<path fill="none" stroke="#34495e" d="M2234.97,-150.6C2345.1,-136.83 2537.36,-112.8 2640.89,-99.86"/>
<polygon fill="#34495e" stroke="#34495e" points="2641.44,-103.31 2650.93,-98.6 2640.57,-96.37 2641.44,-103.31"/>
</g>
<!-- node_17 -->
<g id="node18" class="node">
<title>node_17</title>
<ellipse fill="#3498db" stroke="#2c3e50" cx="1991.74" cy="-18" rx="57.69" ry="18"/>
<text text-anchor="middle" x="1991.74" y="-14.3" font-family="Arial" font-size="14.00" fill="white">☐ Unit tests</text>
</g>
<!-- node_16&#45;&gt;node_17 -->
<g id="edge18" class="edge">
<title>node_16&#45;&gt;node_17</title>
<path fill="none" stroke="#34495e" d="M2118.58,-74.5C2093.8,-63.65 2059.76,-48.76 2033.18,-37.13"/>
<polygon fill="#34495e" stroke="#34495e" points="2034.32,-33.81 2023.75,-33.01 2031.51,-40.22 2034.32,-33.81"/>
</g>
<!-- node_18 -->
<g id="node19" class="node">
<title>node_18</title>
<ellipse fill="#3498db" stroke="#2c3e50" cx="2151.74" cy="-18" rx="83.69" ry="18"/>
<text text-anchor="middle" x="2151.74" y="-14.3" font-family="Arial" font-size="14.00" fill="white">☐ Integration tests</text>
</g>
<!-- node_16&#45;&gt;node_18 -->
<g id="edge19" class="edge">
<title>node_16&#45;&gt;node_18</title>
<path fill="none" stroke="#34495e" d="M2151.74,-71.7C2151.74,-63.98 2151.74,-54.71 2151.74,-46.11"/>
<polygon fill="#34495e" stroke="#34495e" points="2155.24,-46.1 2151.74,-36.1 2148.24,-46.1 2155.24,-46.1"/>
</g>
<!-- node_19 -->
<g id="node20" class="node">
<title>node_19</title>
<ellipse fill="#3498db" stroke="#2c3e50" cx="2369.74" cy="-18" rx="115.88" ry="18"/>
<text text-anchor="middle" x="2369.74" y="-14.3" font-family="Arial" font-size="14.00" fill="white">☐ User acceptance testing</text>
</g>
<!-- node_16&#45;&gt;node_19 -->
<g id="edge20" class="edge">
<title>node_16&#45;&gt;node_19</title>
<path fill="none" stroke="#34495e" d="M2192.48,-75.92C2226.08,-65.13 2274.16,-49.69 2311.77,-37.61"/>
<polygon fill="#34495e" stroke="#34495e" points="2313.13,-40.85 2321.58,-34.46 2310.99,-34.19 2313.13,-40.85"/>
</g>
<!-- node_21 -->
<g id="node22" class="node">
<title>node_21</title>
<ellipse fill="#3498db" stroke="#2c3e50" cx="2598.74" cy="-18" rx="95.58" ry="18"/>
<text text-anchor="middle" x="2598.74" y="-14.3" font-family="Arial" font-size="14.00" fill="white">☐ Stage environment</text>
</g>
<!-- node_20&#45;&gt;node_21 -->
<g id="edge21" class="edge">
<title>node_20&#45;&gt;node_21</title>
<path fill="none" stroke="#34495e" d="M2686.09,-73.12C2670.57,-63.5 2650.56,-51.1 2633.61,-40.6"/>
<polygon fill="#34495e" stroke="#34495e" points="2635.4,-37.6 2625.06,-35.31 2631.72,-43.55 2635.4,-37.6"/>
</g>
<!-- node_22 -->
<g id="node23" class="node">
<title>node_22</title>
<ellipse fill="#3498db" stroke="#2c3e50" cx="2823.74" cy="-18" rx="111.58" ry="18"/>
<text text-anchor="middle" x="2823.74" y="-14.3" font-family="Arial" font-size="14.00" fill="white">☐ Production deployment</text>
</g>
<!-- node_20&#45;&gt;node_22 -->
<g id="edge22" class="edge">
<title>node_20&#45;&gt;node_22</title>
<path fill="none" stroke="#34495e" d="M2737.15,-73.12C2752.29,-63.65 2771.73,-51.5 2788.35,-41.11"/>
<polygon fill="#34495e" stroke="#34495e" points="2790.63,-43.82 2797.25,-35.55 2786.92,-37.88 2790.63,-43.82"/>
</g>
<!-- node_23 -->
<g id="node24" class="node">
<title>node_23</title>
<g id="a_node24"><a xlink:title="Tags: monitoring">
<ellipse fill="#3498db" stroke="#2c3e50" cx="3056.74" cy="-18" rx="103.18" ry="18"/>
<text text-anchor="middle" x="3056.74" y="-14.3" font-family="Arial" font-size="14.00" fill="white">☐ Monitor performance</text>
</a>
</g>
</g>
<!-- node_20&#45;&gt;node_23 -->
<g id="edge23" class="edge">
<title>node_20&#45;&gt;node_23</title>
<path fill="none" stroke="#34495e" d="M2764.51,-78.29C2822.68,-66.49 2916.7,-47.41 2982.33,-34.1"/>
<polygon fill="#34495e" stroke="#34495e" points="2983.1,-37.51 2992.21,-32.09 2981.71,-30.65 2983.1,-37.51"/>
</g>
</g>
</svg>
